<svg width="20" height="20" viewBox="0 0 20 20" fill="none" xmlns="http://www.w3.org/2000/svg">
<path d="M16.8475 3.77491H13.735V3.15241C13.735 2.65712 13.5382 2.18211 13.188 1.83189C12.8378 1.48167 12.3628 1.28491 11.8675 1.28491H8.13247C7.63718 1.28491 7.16217 1.48167 6.81195 1.83189C6.46172 2.18211 6.26497 2.65712 6.26497 3.15241V3.77491H3.15247C2.98737 3.77491 2.82904 3.8405 2.71229 3.95724C2.59555 4.07398 2.52997 4.23231 2.52997 4.39741C2.52997 4.56251 2.59555 4.72084 2.71229 4.83759C2.82904 4.95433 2.98737 5.01991 3.15247 5.01991H3.77497V16.2249C3.77497 16.5551 3.90614 16.8718 4.13962 17.1053C4.3731 17.3387 4.68977 17.4699 5.01997 17.4699H14.98C15.3102 17.4699 15.6268 17.3387 15.8603 17.1053C16.0938 16.8718 16.225 16.5551 16.225 16.2249V5.01991H16.8475C17.0126 5.01991 17.1709 4.95433 17.2876 4.83759C17.4044 4.72084 17.47 4.56251 17.47 4.39741C17.47 4.23231 17.4044 4.07398 17.2876 3.95724C17.1709 3.8405 17.0126 3.77491 16.8475 3.77491ZM7.50997 3.15241C7.50997 2.98731 7.57555 2.82898 7.69229 2.71224C7.80904 2.5955 7.96737 2.52991 8.13247 2.52991H11.8675C12.0326 2.52991 12.1909 2.5955 12.3076 2.71224C12.4244 2.82898 12.49 2.98731 12.49 3.15241V3.77491H7.50997V3.15241ZM14.98 16.2249H5.01997V5.01991H14.98V16.2249ZM8.75497 8.13241V13.1124C8.75497 13.2775 8.68938 13.4358 8.57264 13.5526C8.4559 13.6693 8.29757 13.7349 8.13247 13.7349C7.96737 13.7349 7.80904 13.6693 7.69229 13.5526C7.57555 13.4358 7.50997 13.2775 7.50997 13.1124V8.13241C7.50997 7.96731 7.57555 7.80898 7.69229 7.69224C7.80904 7.5755 7.96737 7.50991 8.13247 7.50991C8.29757 7.50991 8.4559 7.5755 8.57264 7.69224C8.68938 7.80898 8.75497 7.96731 8.75497 8.13241ZM12.49 8.13241V13.1124C12.49 13.2775 12.4244 13.4358 12.3076 13.5526C12.1909 13.6693 12.0326 13.7349 11.8675 13.7349C11.7024 13.7349 11.544 13.6693 11.4273 13.5526C11.3106 13.4358 11.245 13.2775 11.245 13.1124V8.13241C11.245 7.96731 11.3106 7.80898 11.4273 7.69224C11.544 7.5755 11.7024 7.50991 11.8675 7.50991C12.0326 7.50991 12.1909 7.5755 12.3076 7.69224C12.4244 7.80898 12.49 7.96731 12.49 8.13241Z" fill="black"/>
</svg>
