<svg width="20" height="20" viewBox="0 0 20 20" fill="none" xmlns="http://www.w3.org/2000/svg">
<path d="M16.6922 9.55767C16.7503 9.61572 16.7964 9.68465 16.8278 9.76052C16.8593 9.8364 16.8755 9.91772 16.8755 9.99986C16.8755 10.082 16.8593 10.1633 16.8278 10.2392C16.7964 10.3151 16.7503 10.384 16.6922 10.442L10.4422 16.692C10.3841 16.7502 10.3152 16.7963 10.2393 16.8277C10.1634 16.8592 10.0821 16.8754 9.99998 16.8754C9.91785 16.8754 9.83652 16.8592 9.76064 16.8277C9.68477 16.7963 9.61584 16.7502 9.55779 16.692L3.30779 10.442C3.19052 10.3248 3.12463 10.1657 3.12463 9.99986C3.12463 9.83401 3.19052 9.67495 3.30779 9.55767C3.42507 9.4404 3.58413 9.37451 3.74998 9.37451C3.91583 9.37451 4.07489 9.4404 4.19217 9.55767L9.99998 15.3663L15.8078 9.55767C15.8658 9.49956 15.9348 9.45346 16.0106 9.42201C16.0865 9.39056 16.1678 9.37437 16.25 9.37437C16.3321 9.37437 16.4134 9.39056 16.4893 9.42201C16.5652 9.45346 16.6341 9.49956 16.6922 9.55767ZM9.55779 10.442C9.61584 10.5002 9.68477 10.5463 9.76064 10.5777C9.83652 10.6092 9.91785 10.6254 9.99998 10.6254C10.0821 10.6254 10.1634 10.6092 10.2393 10.5777C10.3152 10.5463 10.3841 10.5002 10.4422 10.442L16.6922 4.19205C16.8094 4.07477 16.8753 3.91571 16.8753 3.74986C16.8753 3.58401 16.8094 3.42495 16.6922 3.30767C16.5749 3.1904 16.4158 3.12451 16.25 3.12451C16.0841 3.12451 15.9251 3.1904 15.8078 3.30767L9.99998 9.11627L4.19217 3.30767C4.07489 3.1904 3.91583 3.12451 3.74998 3.12451C3.58413 3.12451 3.42507 3.1904 3.30779 3.30767C3.19052 3.42495 3.12463 3.58401 3.12463 3.74986C3.12463 3.91571 3.19052 4.07477 3.30779 4.19205L9.55779 10.442Z" fill="#232325"/>
</svg>
