<svg width="20" height="20" viewBox="0 0 20 20" fill="none" xmlns="http://www.w3.org/2000/svg">
<path d="M16.692 9.55792C16.7502 9.61596 16.7963 9.68489 16.8277 9.76077C16.8592 9.83664 16.8754 9.91797 16.8754 10.0001C16.8754 10.0822 16.8592 10.1636 16.8277 10.2394C16.7963 10.3153 16.7502 10.3842 16.692 10.4423L10.442 16.6923C10.384 16.7504 10.3151 16.7965 10.2392 16.828C10.1633 16.8594 10.082 16.8756 9.99986 16.8756C9.91772 16.8756 9.8364 16.8594 9.76052 16.828C9.68465 16.7965 9.61572 16.7504 9.55767 16.6923L3.30767 10.4423C3.1904 10.325 3.12451 10.166 3.12451 10.0001C3.12451 9.83425 3.1904 9.67519 3.30767 9.55792C3.42495 9.44064 3.58401 9.37476 3.74986 9.37476C3.91571 9.37476 4.07477 9.44064 4.19205 9.55792L9.99986 15.3665L15.8077 9.55792C15.8657 9.49981 15.9346 9.45371 16.0105 9.42225C16.0864 9.3908 16.1677 9.37461 16.2499 9.37461C16.332 9.37461 16.4133 9.3908 16.4892 9.42225C16.5651 9.45371 16.634 9.49981 16.692 9.55792ZM9.55767 10.4423C9.61572 10.5004 9.68465 10.5465 9.76052 10.578C9.8364 10.6094 9.91772 10.6256 9.99986 10.6256C10.082 10.6256 10.1633 10.6094 10.2392 10.578C10.3151 10.5465 10.384 10.5004 10.442 10.4423L16.692 4.19229C16.8093 4.07502 16.8752 3.91596 16.8752 3.7501C16.8752 3.58425 16.8093 3.42519 16.692 3.30792C16.5748 3.19064 16.4157 3.12476 16.2499 3.12476C16.084 3.12476 15.9249 3.19064 15.8077 3.30792L9.99986 9.11651L4.19205 3.30792C4.07477 3.19064 3.91571 3.12476 3.74986 3.12476C3.58401 3.12476 3.42495 3.19064 3.30767 3.30792C3.1904 3.42519 3.12451 3.58425 3.12451 3.7501C3.12451 3.91596 3.1904 4.07502 3.30767 4.19229L9.55767 10.4423Z" fill="white"/>
</svg>
