<svg width="51" height="56" viewBox="0 0 51 56" fill="none" xmlns="http://www.w3.org/2000/svg">
<path d="M30.6717 1.51465C27.1796 -0.504884 22.8039 -0.504884 19.3118 1.51465L0.0841473 12.6221L0 12.6642V41.5267L24.9917 55.9579L49.8993 41.5687L49.9835 41.5267V12.6642L30.6717 1.51465Z" fill="url(#paint0_linear_62_2927)"/>
<path d="M37.0607 29.0607C37.342 28.7794 37.5 28.3978 37.5 28C37.5 27.6022 37.342 27.2206 37.0607 26.9393C36.7794 26.658 36.3978 26.5 36 26.5H26.5V17C26.5 16.6022 26.342 16.2206 26.0607 15.9393C25.7794 15.658 25.3978 15.5 25 15.5C24.6022 15.5 24.2206 15.658 23.9393 15.9393C23.658 16.2206 23.5 16.6022 23.5 17V26.5H14C13.6022 26.5 13.2206 26.658 12.9393 26.9393C12.658 27.2206 12.5 27.6022 12.5 28C12.5 28.3978 12.658 28.7794 12.9393 29.0607C13.2206 29.342 13.6022 29.5 14 29.5H23.5V39C23.5 39.3978 23.658 39.7794 23.9393 40.0607C24.2206 40.342 24.6022 40.5 25 40.5C25.3978 40.5 25.7794 40.342 26.0607 40.0607C26.342 39.7794 26.5 39.3978 26.5 39V29.5H36C36.3978 29.5 36.7794 29.342 37.0607 29.0607Z" fill="white" stroke="white"/>
<defs>
<linearGradient id="paint0_linear_62_2927" x1="24.9917" y1="0" x2="24.9917" y2="55.9579" gradientUnits="userSpaceOnUse">
<stop stop-color="#A2E2FF"/>
<stop offset="1" stop-color="#007AFF"/>
</linearGradient>
</defs>
</svg>
