<svg width="20" height="20" viewBox="0 0 20 20" fill="none" xmlns="http://www.w3.org/2000/svg">
<path d="M16.6923 10.4423C16.7504 10.3843 16.7965 10.3154 16.828 10.2395C16.8594 10.1636 16.8756 10.0823 16.8756 10.0001C16.8756 9.91801 16.8594 9.83668 16.828 9.7608C16.7965 9.68493 16.7504 9.616 16.6923 9.55795L10.4423 3.30795C10.3842 3.24984 10.3153 3.20374 10.2394 3.17229C10.1636 3.14084 10.0822 3.12465 10.0001 3.12465C9.91797 3.12465 9.83664 3.14084 9.76077 3.17229C9.68489 3.20374 9.61596 3.24984 9.55792 3.30795L3.30792 9.55795C3.19064 9.67523 3.12476 9.83429 3.12476 10.0001C3.12476 10.166 3.19064 10.3251 3.30792 10.4423C3.42519 10.5596 3.58425 10.6255 3.7501 10.6255C3.91596 10.6255 4.07502 10.5596 4.19229 10.4423L10.0001 4.63373L15.8079 10.4423C15.866 10.5004 15.9349 10.5465 16.0108 10.578C16.0866 10.6094 16.168 10.6256 16.2501 10.6256C16.3322 10.6256 16.4136 10.6094 16.4894 10.578C16.5653 10.5465 16.6342 10.5004 16.6923 10.4423ZM9.55792 9.55795C9.61596 9.49984 9.68489 9.45374 9.76077 9.42229C9.83664 9.39084 9.91797 9.37465 10.0001 9.37465C10.0822 9.37465 10.1636 9.39084 10.2394 9.42229C10.3153 9.45374 10.3842 9.49984 10.4423 9.55795L16.6923 15.808C16.8096 15.9252 16.8755 16.0843 16.8755 16.2501C16.8755 16.416 16.8096 16.5751 16.6923 16.6923C16.575 16.8096 16.416 16.8755 16.2501 16.8755C16.0843 16.8755 15.9252 16.8096 15.8079 16.6923L10.0001 10.8837L4.19229 16.6923C4.07502 16.8096 3.91596 16.8755 3.7501 16.8755C3.58425 16.8755 3.42519 16.8096 3.30792 16.6923C3.19064 16.5751 3.12476 16.416 3.12476 16.2501C3.12476 16.0843 3.19064 15.9252 3.30792 15.808L9.55792 9.55795Z" fill="#007AFF"/>
</svg>
