
<svg width="144" height="118" viewBox="0 0 144 118" fill="none" xmlns="http://www.w3.org/2000/svg">
<ellipse cx="141.219" cy="64.6869" rx="2.73325" ry="2.73325" transform="rotate(-90 141.219 64.6869)" fill="#5AADFF"/>
<line x1="109.331" y1="76.0891" x2="129.845" y2="76.0891" stroke="#5CAEFF" stroke-width="1.36663"/>
<line x1="109.33" y1="80.8753" x2="122.322" y2="80.8753" stroke="#50A7FF" stroke-width="1.36663"/>
<path d="M120.96 65.1482L138.734 65.1482" stroke="#50A7FF" stroke-width="1.36663"/>
<line x1="121.64" y1="81.5586" x2="121.64" y2="65.8312" stroke="#50A7FF" stroke-width="1.36663"/>
<path d="M129.716 76.5312C129.716 74.7073 131.195 73.2288 133.019 73.2288C134.842 73.2288 136.321 74.7073 136.321 76.5312C136.321 78.3551 134.842 79.8336 133.019 79.8336C131.195 79.8336 129.716 78.3551 129.716 76.5312Z" stroke="#5CAEFF" stroke-width="0.6838"/>
<path d="M45.5618 95.6636L45.5618 118" stroke="#007AFF" stroke-width="1.36663"/>
<path d="M32.7988 87.4639L32.7988 102.041" stroke="#007AFF" stroke-width="1.36663"/>
<path d="M32.7988 102.041L45.791 102.041" stroke="#007AFF" stroke-width="1.36663"/>
<circle cx="6.37754" cy="20.9552" r="2.73325" fill="#57B2FF"/>
<circle cx="32.7987" cy="102.042" r="1.82217" fill="#007AFF"/>
<circle cx="3.07685" cy="46.3706" r="2.7352" stroke="#74C5FF" stroke-width="0.6838"/>
<path d="M28.2434 62.4392L5.46629 62.4392" stroke="#57B2FF" stroke-width="1.36663"/>
<line x1="6.15311" y1="62.4397" x2="6.15311" y2="23.4631" stroke="#57B2FF" stroke-width="1.36663"/>
<path d="M28.2434 46.7124L6.83824 46.7124" stroke="#74C5FF" stroke-width="1.36663"/>
<circle cx="7.98825" cy="7.98825" r="7.4754" transform="matrix(-1 -8.74228e-08 -8.74228e-08 1 101.618 0)" stroke="#8CD4FF" stroke-width="1.0257"/>
<circle cx="1.71177" cy="1.71177" r="1.71177" transform="matrix(-1 -8.74228e-08 -8.74228e-08 1 95.3418 6.27637)" fill="#8FD6FF"/>
<line y1="-0.683314" x2="28.0358" y2="-0.683314" transform="matrix(-5.11743e-08 1 1 5.11743e-08 94.0959 15.7273)" stroke="#8CD4FF" stroke-width="1.36663"/>
<path fill-rule="evenodd" clip-rule="evenodd" d="M58.9248 22.5842C61.8351 20.9195 65.1343 20.0437 68.4918 20.0437C71.8493 20.0437 75.1484 20.9195 78.0587 22.5842L109.33 40.5083V87.3357L68.4884 110.723L27.6538 87.3356V40.5083L58.9248 22.5842ZM60.2975 24.9839C60.2973 24.9841 60.2976 24.9838 60.2975 24.9839L30.4184 42.1102V85.7331L68.4885 107.537L106.565 85.733V42.1102L76.6861 24.9839C76.6859 24.9838 76.6863 24.9841 76.6861 24.9839C74.1946 23.559 71.3684 22.8083 68.4918 22.8083C65.6151 22.8083 62.7889 23.559 60.2975 24.9839Z" fill="url(#paint0_linear_56_438)"/>
<path d="M77.3724 23.7841L107.947 41.3092V86.5343L68.4884 109.13C68.4884 50.5399 36.6995 41.3093 29.0361 41.3093L59.6111 23.7841C62.3121 22.2392 65.3746 21.426 68.4918 21.426C71.609 21.426 74.6714 22.2392 77.3724 23.7841Z" fill="url(#paint1_linear_56_438)"/>
<defs>
<linearGradient id="paint0_linear_56_438" x1="68.4918" y1="20.0437" x2="68.4918" y2="110.723" gradientUnits="userSpaceOnUse">
<stop stop-color="#A2E2FF"/>
<stop offset="1" stop-color="#007AFF"/>
</linearGradient>
<linearGradient id="paint1_linear_56_438" x1="68.4918" y1="20.0437" x2="68.4918" y2="110.723" gradientUnits="userSpaceOnUse">
<stop stop-color="#A2E2FF"/>
<stop offset="1" stop-color="#007AFF"/>
</linearGradient>
</defs>
</svg>
