<svg width="89" height="74" viewBox="0 0 89 74" fill="none" xmlns="http://www.w3.org/2000/svg">
<ellipse cx="87.3105" cy="40.8951" rx="1.68987" ry="1.68987" transform="rotate(-90 87.3105 40.8951)" fill="#FF5A5A"/>
<line x1="67.5952" y1="47.9447" x2="80.2783" y2="47.9447" stroke="#FF5C5C" stroke-width="0.844937"/>
<line x1="67.595" y1="50.9037" x2="75.6276" y2="50.9037" stroke="#FF5050" stroke-width="0.844937"/>
<path d="M74.7854 41.1802L85.7745 41.1802" stroke="#FF5050" stroke-width="0.844937"/>
<line x1="75.2057" y1="51.3262" x2="75.2057" y2="41.6025" stroke="#FF5050" stroke-width="0.844937"/>
<path d="M80.1989 48.218C80.1989 47.0904 81.1131 46.1762 82.2407 46.1762C83.3684 46.1762 84.2825 47.0904 84.2825 48.218C84.2825 49.3457 83.3684 50.2598 82.2407 50.2598C81.1131 50.2598 80.1989 49.3457 80.1989 48.218Z" stroke="#FF5C5C" stroke-width="0.422769"/>
<path d="M28.1692 60.0469L28.1692 73.8565" stroke="#FF0000" stroke-width="0.844937"/>
<path d="M20.2783 54.9773L20.2783 63.99" stroke="#FF0000" stroke-width="0.844937"/>
<path d="M20.2783 63.99L28.3109 63.99" stroke="#FF0000" stroke-width="0.844937"/>
<circle cx="3.94305" cy="13.8571" r="1.68987" fill="#FF5757"/>
<circle cx="20.2784" cy="63.9901" r="1.12658" fill="#FF0000"/>
<circle cx="1.90246" cy="29.5707" r="1.69108" stroke="#FF7474" stroke-width="0.422769"/>
<path d="M17.4619 39.5054L3.37963 39.5054" stroke="#FF5757" stroke-width="0.844937"/>
<line x1="3.80434" y1="39.5056" x2="3.80434" y2="15.4078" stroke="#FF5757" stroke-width="0.844937"/>
<path d="M17.4619 29.782L4.22785 29.782" stroke="#FF7474" stroke-width="0.844937"/>
<circle cx="4.93885" cy="4.93885" r="4.62178" transform="matrix(-1 -8.74228e-08 -8.74228e-08 1 62.8267 0.901367)" stroke="#FF8C8C" stroke-width="0.634154"/>
<circle cx="1.05833" cy="1.05833" r="1.05833" transform="matrix(-1 -8.74228e-08 -8.74228e-08 1 58.9465 4.78198)" fill="#FF8F8F"/>
<line y1="-0.422469" x2="17.3335" y2="-0.422469" transform="matrix(-5.11743e-08 1 1 5.11743e-08 58.1763 10.625)" stroke="#FF8C8C" stroke-width="0.844937"/>
<path fill-rule="evenodd" clip-rule="evenodd" d="M36.4312 14.8644C38.2305 13.8352 40.2703 13.2937 42.3461 13.2937C44.4219 13.2937 46.4616 13.8352 48.261 14.8644L67.5947 25.9462V54.898L42.344 69.3576L17.0974 54.8979V25.9462L36.4312 14.8644ZM37.2798 16.3481C37.2797 16.3482 37.2799 16.348 37.2798 16.3481L18.8067 26.9366V53.9071L42.344 67.3879L65.8855 53.9071V26.9366L47.4123 16.3481C47.4122 16.348 47.4124 16.3482 47.4123 16.3481C45.872 15.4671 44.1246 15.003 42.3461 15.003C40.5675 15.003 38.8202 15.4671 37.2798 16.3481Z" fill="url(#paint0_linear_101_1048)"/>
<path d="M47.8366 15.6062L66.7401 26.4414V54.4025L42.344 68.3728C42.344 32.1484 22.69 26.4415 17.952 26.4415L36.8555 15.6062C38.5254 14.6511 40.4188 14.1483 42.3461 14.1483C44.2733 14.1483 46.1668 14.6511 47.8366 15.6062Z" fill="url(#paint1_linear_101_1048)"/>
<defs>
<linearGradient id="paint0_linear_101_1048" x1="42.3461" y1="13.2937" x2="42.3461" y2="69.3576" gradientUnits="userSpaceOnUse">
<stop stop-color="#FFA2A2"/>
<stop offset="1" stop-color="#FF0000"/>
</linearGradient>
<linearGradient id="paint1_linear_101_1048" x1="42.3461" y1="13.2937" x2="42.3461" y2="69.3576" gradientUnits="userSpaceOnUse">
<stop stop-color="#FFA2A2"/>
<stop offset="1" stop-color="#FF0000"/>
</linearGradient>
</defs>
</svg>
